<?xml version="1.0" encoding="utf-8"?>
<!-- Generator: Adobe Illustrator 18.1.1, SVG Export Plug-In . SVG Version: 6.00 Build 0)  -->
<!DOCTYPE svg PUBLIC "-//W3C//DTD SVG 1.1 Tiny//EN" "http://www.w3.org/Graphics/SVG/1.1/DTD/svg11-tiny.dtd">
<svg version="1.1" baseProfile="tiny" id="Layer_1" xmlns="http://www.w3.org/2000/svg" xmlns:xlink="http://www.w3.org/1999/xlink"
	 x="0px" y="0px" viewBox="0 0 50 50" xml:space="preserve">
<path fill="#FFFFFF" d="M6.2,23L25,1C25,1,4,19,1,21.5V29C2.8,26.9,6.2,23,6.2,23z"/>
<path fill="none" d="M49,49V29c-6.1,7.1-17.1,20-17.1,20L25,42.1L47.3,23c0,0,1.5-1.3,1.7-1.5V1H1v20.5C4,19,25,1,25,1L6.2,23
	c0,0-3.3,3.9-5.2,6v20H49z"/>
<path fill="#FFFFFF" d="M25,42.1l6.9,6.9c0,0,11-12.8,17.1-20v-7.5c-0.2,0.2-1.7,1.5-1.7,1.5L25,42.1z"/>
<path fill="#FFFFFF" d="M49,49H1V29c-0.4,0.4-0.6,0.7-1,1.2V50h50V27.9c-0.3,0.4-0.6,0.8-1,1.2V49z"/>
<path fill="#FFFFFF" d="M49,1v20.5c0.1-0.1,0.8-0.7,1-0.9V0H0v22.4c0.1,0,0.9-0.7,1-0.9V1H49z"/>
<path fill="#FFFFFF" d="M49,21.5V29c0.4-0.4,0.7-0.8,1-1.2v-7.2C49.8,20.8,49.1,21.4,49,21.5z"/>
<path fill="#FFFFFF" d="M1,21.5c-0.1,0.1-0.9,0.8-1,0.9v7.8c0.4-0.5,0.6-0.8,1-1.2V21.5z"/>
</svg>
